<svg width="61" height="68" viewBox="0 0 61 68" fill="none" xmlns="http://www.w3.org/2000/svg">
<path d="M56.5439 8.56211H54.9148V3.59602C54.9148 1.61317 53.3015 0 51.3187 0H7.5685C5.58564 0 3.97248 1.61317 3.97248 3.59602V4.06656H0.997199C0.446384 4.06656 0 4.51294 0 5.06376V14.0549C0 14.6057 0.446384 15.0521 0.997199 15.0521H3.97248V15.5227C3.97248 17.5056 5.58564 19.1188 7.5685 19.1188H14.1033V24.0829C14.1033 26.2556 15.8709 28.0232 18.0437 28.0232C20.2163 28.0232 21.9839 26.2556 21.9839 24.0829V19.1188H37.4522C38.003 19.1188 38.4494 18.6724 38.4494 18.1216C38.4494 17.5707 38.003 17.1244 37.4522 17.1244H21.9838V8.87673C21.9838 7.80376 22.8568 6.9309 23.9297 6.9309C25.0027 6.9309 25.8756 7.80376 25.8756 8.87673V11.1118C25.8756 13.2844 27.6432 15.0521 29.8159 15.0521C31.9885 15.0521 33.7562 13.2844 33.7562 11.1118V1.9944H51.3187C52.2019 1.9944 52.9204 2.71294 52.9204 3.59602V15.5227C52.9204 16.406 52.2019 17.1245 51.3187 17.1245H41.4408C40.8899 17.1245 40.4436 17.5709 40.4436 18.1217C40.4436 18.6725 40.8899 19.1189 41.4408 19.1189H51.3187C53.3015 19.1189 54.9148 17.5059 54.9148 15.5229V10.5565H56.5439C57.4271 10.5565 58.1457 11.2751 58.1457 12.1581V19.8263C58.1457 20.6061 57.5881 21.2696 56.8201 21.4039L32.592 25.6447C30.8677 25.9464 29.616 27.4361 29.616 29.1868V32.6606H26.7876C26.2368 32.6606 25.7904 33.107 25.7904 33.6578V37.4033H25.5739C25.0231 37.4033 24.5768 37.8497 24.5768 38.4005V61.9033C24.5768 65.2317 27.2846 67.9396 30.613 67.9396C33.9414 67.9396 36.6493 65.2317 36.6493 61.9033V54.0685C36.6493 53.5177 36.2029 53.0713 35.6521 53.0713C35.1013 53.0713 34.6549 53.5177 34.6549 54.0685V61.9033C34.6549 64.1322 32.8418 65.9453 30.6129 65.9453C28.3842 65.9453 26.5709 64.1322 26.5709 61.9033V39.3975H34.6549V50.0798C34.6549 50.6307 35.1013 51.077 35.6521 51.077C36.2029 51.077 36.6493 50.6307 36.6493 50.0798V38.4003C36.6493 37.8495 36.2029 37.4031 35.6521 37.4031H35.4355V33.6577C35.4355 33.1069 34.9892 32.6605 34.4383 32.6605H31.6101V29.1867C31.6101 28.4068 32.1675 27.7434 32.9356 27.6091L57.1636 23.3683C58.8881 23.0666 60.1398 21.5769 60.1398 19.8262V12.1581C60.1401 10.1753 58.5268 8.56211 56.5439 8.56211ZM1.9944 13.0577V6.06082H3.97248V13.0577H1.9944ZM31.7619 11.1118C31.7619 12.1848 30.889 13.0577 29.8161 13.0577C28.7431 13.0577 27.87 12.1848 27.87 11.1118V8.87673C27.87 6.70413 26.1023 4.9365 23.9297 4.9365C21.757 4.9365 19.9894 6.70413 19.9894 8.87673V24.0827C19.9894 25.1557 19.1164 26.0287 18.0434 26.0287C16.9704 26.0287 16.0976 25.1557 16.0976 24.0827V11.5537C16.0976 11.0029 15.6512 10.5565 15.1004 10.5565C14.5496 10.5565 14.1032 11.0029 14.1032 11.5537V17.1244H7.5685C6.68542 17.1244 5.96688 16.4058 5.96688 15.5226V3.59602C5.96688 2.71281 6.68542 1.9944 7.5685 1.9944H14.1033V7.56505C14.1033 8.11586 14.5497 8.56225 15.1005 8.56225C15.6513 8.56225 16.0977 8.11586 16.0977 7.56505V1.99427H31.7619V11.1118ZM33.4414 37.4033H27.7848V34.655H33.4414V37.4033Z" fill="#114A5B"/>
</svg>
