<svg width="65" height="68" viewBox="0 0 65 68" fill="none" xmlns="http://www.w3.org/2000/svg">
<path fill-rule="evenodd" clip-rule="evenodd" d="M32.4429 20.8815C38.9393 20.8815 44.8215 23.5148 49.0786 27.7733C53.3357 32.0304 55.9704 37.9126 55.9704 44.4103C55.9704 50.9081 53.3371 56.7889 49.0786 61.046C44.8202 65.3031 38.9393 67.9364 32.4429 67.9364C25.9465 67.9364 20.0643 65.3031 15.8059 61.046C11.5488 56.7889 8.91545 50.9067 8.91545 44.4103C8.91545 37.9139 11.5488 32.0317 15.8059 27.7733C20.0643 23.5148 25.9465 20.8815 32.4429 20.8815ZM10.031 8.00149C9.94134 7.7175 9.72121 7.47971 9.41549 7.38188C8.91681 7.22154 8.3828 7.49602 8.22247 7.99469L6.51446 13.2885L1.01951 13.2777C0.702912 13.2546 0.380878 13.3918 0.181136 13.6677C-0.12731 14.093 -0.0321946 14.6867 0.393107 14.9938L4.90022 18.2549L3.17048 23.5434L3.1732 23.5447C3.08352 23.8233 3.12292 24.1399 3.30772 24.3953C3.61616 24.8179 4.20724 24.9117 4.62982 24.6032L9.12606 21.3231L13.5639 24.5597C13.8071 24.7663 14.1482 24.8451 14.4729 24.7391C14.9716 24.5774 15.2447 24.0407 15.0816 23.5434L13.3519 18.2549L17.859 14.9938L17.8577 14.9925C18.0954 14.8199 18.249 14.5414 18.249 14.2248C18.249 13.7016 17.825 13.2777 17.3019 13.2777L11.7377 13.2885L10.031 8.00149ZM10.1438 14.5264L9.1247 11.3713L8.10561 14.5264C7.98332 14.9082 7.62596 15.1841 7.20337 15.1841L3.8852 15.1773L6.57289 17.1217C6.89764 17.3568 7.04847 17.7821 6.91803 18.1843L5.8867 21.3394L8.55265 19.395C8.8774 19.149 9.33668 19.1314 9.68317 19.3841L12.3641 21.3394L11.3436 18.2196C11.1996 17.8296 11.3246 17.3772 11.6779 17.1217L14.3656 15.1773L11.0922 15.1841C10.6737 15.2044 10.2783 14.9436 10.1438 14.5264ZM56.6648 8.00149C56.5751 7.7175 56.3549 7.47971 56.0492 7.38188C55.5505 7.22154 55.0165 7.49602 54.8562 7.99469L53.1482 13.2885L47.6532 13.2777C47.3367 13.2546 47.0146 13.3918 46.8149 13.6677C46.5064 14.093 46.6015 14.6867 47.0268 14.9938L51.534 18.2549L49.8042 23.5434L49.8069 23.5447C49.7173 23.8233 49.7567 24.1399 49.9415 24.3953C50.2499 24.8179 50.841 24.9117 51.2636 24.6032L55.7598 21.3231L60.1976 24.5597C60.4408 24.7663 60.7819 24.8451 61.1066 24.7391C61.6053 24.5774 61.8784 24.0407 61.7154 23.5434L59.9856 18.2549L64.4928 14.9938L64.4914 14.9925C64.7292 14.8199 64.8827 14.5414 64.8827 14.2248C64.8827 13.7016 64.4588 13.2777 63.9356 13.2777L58.3714 13.2885L56.6648 8.00149ZM56.7789 14.5264L55.7598 11.3713L54.7407 14.5264C54.6184 14.9082 54.2611 15.1841 53.8385 15.1841L50.5203 15.1773L53.208 17.1217C53.5327 17.3568 53.6836 17.7821 53.5531 18.1843L52.5218 21.3394L55.1877 19.395C55.5125 19.149 55.9718 19.1314 56.3183 19.3841L58.9992 21.3394L57.9787 18.2196C57.8347 17.8296 57.9597 17.3772 58.313 17.1217L61.0007 15.1773L57.7273 15.1841C57.3075 15.2044 56.9121 14.9436 56.7789 14.5264ZM33.3479 0.66537L35.0545 5.95243L40.6188 5.94156C41.1419 5.94156 41.5659 6.3655 41.5659 6.88864C41.5659 7.20388 41.411 7.48379 41.1745 7.65635L41.1759 7.65771L36.6688 10.9188L38.3985 16.2072C38.5602 16.7059 38.2885 17.2413 37.7898 17.403C37.465 17.509 37.124 17.4288 36.8807 17.2236L32.4429 13.987L27.9467 17.2671C27.5241 17.5755 26.9317 17.4818 26.6246 17.0592C26.4384 16.8037 26.399 16.4871 26.4901 16.2086L26.4873 16.2072L28.2171 10.9188L23.71 7.65771C23.2847 7.34927 23.1909 6.75548 23.498 6.33153C23.6977 6.0557 24.0198 5.91846 24.3364 5.94156L29.8313 5.95243L31.5407 0.658576C31.701 0.159899 32.235 -0.114577 32.7337 0.0457606C33.0381 0.143594 33.2582 0.381382 33.3479 0.66537ZM33.462 7.19029L32.4429 4.03517L31.4238 7.19029C31.3015 7.57211 30.9442 7.84794 30.5216 7.84794L27.2048 7.84115L29.8925 9.78558C30.2172 10.0207 30.3681 10.446 30.2376 10.8482L29.2063 14.0033L31.8722 12.0588C32.197 11.8129 32.6563 11.7952 33.0028 12.048L35.6836 14.0033L34.6632 10.8835C34.5192 10.4935 34.6442 10.041 34.9975 9.78558L37.6852 7.84115L34.4118 7.84794C33.9906 7.86697 33.5952 7.60744 33.462 7.19029ZM27.236 40.5283L27.2551 52.8457H39.6269C40.0399 52.8457 40.4177 52.7071 40.7085 52.4693C41.0006 52.2302 41.2126 51.8905 41.2955 51.4883L43.1339 42.5352C43.1883 42.2716 43.1855 42.0188 43.1271 41.7838C43.0687 41.5487 42.9545 41.3231 42.7833 41.1139C42.6148 40.906 42.4178 40.7497 42.2004 40.6465C41.9844 40.5432 41.7371 40.4916 41.4639 40.4916H34.9662C34.4404 40.4916 34.0151 40.0663 34.0151 39.5404C34.0151 39.4032 34.0436 39.2741 34.0966 39.1559L34.3031 38.5689C35.3331 35.6366 35.8793 34.0808 34.4472 32.7505C34.3031 32.616 34.1455 32.5263 33.9824 32.4815C33.8194 32.4366 33.6359 32.4339 33.4416 32.4761C33.2473 32.5182 33.0816 32.5956 32.9525 32.703C32.822 32.8117 32.716 32.9584 32.6413 33.1405L30.0881 39.2523C29.5745 40.4807 28.3394 40.5677 27.236 40.5283ZM25.3609 53.6664L25.3392 39.6287C25.153 38.6287 23.4681 38.3977 23.4681 40.16V53.271C23.4681 54.8622 24.9356 55.1162 25.3609 53.6664ZM39.6269 54.748C40.4856 54.748 41.2792 54.4504 41.9056 53.9409C42.5292 53.4313 42.9804 52.7125 43.1543 51.8687L44.9927 42.9157C45.1042 42.3721 45.096 41.8395 44.971 41.3313C44.846 40.8245 44.6068 40.3489 44.2563 39.9182C43.9043 39.4861 43.4858 39.1559 43.0116 38.9303C42.5374 38.7048 42.017 38.5893 41.4653 38.5893H36.306C37.4596 35.2765 37.9515 33.4136 35.7407 31.3605C35.3725 31.0181 34.9445 30.7803 34.4811 30.6526C34.0178 30.5248 33.53 30.5112 33.0408 30.6172C32.5503 30.7232 32.1127 30.9379 31.7418 31.2463C31.3722 31.5534 31.0814 31.9475 30.8871 32.4122L28.3339 38.524C28.2714 38.6749 27.588 38.649 27.001 38.6192C25.8107 35.9505 21.5644 36.5225 21.5644 40.1614V53.2724C21.5644 56.7903 25.6041 57.7102 26.9752 54.748H39.6269ZM32.4429 24.8519C27.0431 24.8519 22.1528 27.0409 18.6145 30.5805C15.0749 34.1202 12.8858 39.0091 12.8858 44.409C12.8858 49.8088 15.0749 54.6991 18.6145 58.2374C22.1542 61.777 27.0431 63.9661 32.4429 63.9661C37.8428 63.9661 42.7331 61.777 46.2714 58.2374C49.811 54.6977 52 49.8088 52 44.409C52 39.0091 49.811 34.1188 46.2714 30.5805C42.7331 27.0409 37.8428 24.8519 32.4429 24.8519ZM44.9262 31.9257C41.7316 28.7312 37.3183 26.7542 32.4429 26.7542C27.5676 26.7542 23.1542 28.7299 19.9584 31.9257C16.7638 35.1203 14.7868 39.5336 14.7868 44.409C14.7868 49.2843 16.7625 53.6977 19.9584 56.8935C23.1529 60.0881 27.5676 62.0651 32.4429 62.0651C37.3183 62.0651 41.7316 60.0894 44.9262 56.8935C48.1207 53.699 50.0977 49.2843 50.0977 44.409C50.0977 39.5336 48.122 35.1203 44.9262 31.9257ZM47.7348 29.1171C43.8215 25.2038 38.4148 22.7838 32.4429 22.7838C26.471 22.7838 21.0644 25.2038 17.1511 29.1171C13.2378 33.0304 10.8178 38.4371 10.8178 44.409C10.8178 50.3809 13.2378 55.7875 17.1511 59.7008C21.0644 63.6141 26.471 66.0341 32.4429 66.0341C38.4148 66.0341 43.8215 63.6141 47.7348 59.7008C51.6481 55.7875 54.0681 50.3809 54.0681 44.409C54.0681 38.4371 51.6481 33.0304 47.7348 29.1171Z" fill="#114A5B"/>
</svg>
