<svg width="18" height="17" viewBox="0 0 18 17" fill="none" xmlns="http://www.w3.org/2000/svg">
<g clip-path="url(#clip0_40_446)">
<path d="M7.9939 9.73996L10.6623 8.20313L7.9939 6.66629V9.73996Z" fill="white"/>
<path d="M9.01562 0C4.48586 0 0.8125 3.67336 0.8125 8.20312C0.8125 12.7329 4.48586 16.4062 9.01562 16.4062C13.5454 16.4062 17.2188 12.7329 17.2188 8.20312C17.2188 3.67336 13.5454 0 9.01562 0ZM14.1413 8.21151C14.1413 8.21151 14.1413 9.87514 13.9303 10.6774C13.812 11.1165 13.4658 11.4627 13.0267 11.5808C12.2245 11.792 9.01562 11.792 9.01562 11.792C9.01562 11.792 5.81516 11.792 5.00456 11.5724C4.56546 11.4543 4.21925 11.1079 4.10096 10.6688C3.8898 9.87514 3.8898 8.20312 3.8898 8.20312C3.8898 8.20312 3.8898 6.53962 4.10096 5.73741C4.21912 5.29831 4.57385 4.94358 5.00456 4.82542C5.80677 4.61426 9.01562 4.61426 9.01562 4.61426C9.01562 4.61426 12.2245 4.61426 13.0267 4.83381C13.4658 4.95197 13.812 5.29831 13.9303 5.73741C14.1498 6.53962 14.1413 8.21151 14.1413 8.21151Z" fill="white"/>
</g>
<defs>
<clipPath id="clip0_40_446">
<rect width="16.4062" height="16.4062" fill="white" transform="translate(0.8125)"/>
</clipPath>
</defs>
</svg>
