<?xml version="1.0" encoding="utf-8"?><svg viewBox="0 0 76 69" xmlns="http://www.w3.org/2000/svg" xmlns:xlink="http://www.w3.org/1999/xlink"><style>:root>svg{display:none}:root>svg:target{display:block}</style><svg fill="none" viewBox="0 0 60 60" id="advantages_1" xmlns="http://www.w3.org/2000/svg"><path d="M52.98 0H15.422a1.564 1.564 0 000 3.128H52.98a3.316 3.316 0 013.313 3.313v37.555a1.564 1.564 0 003.128 0V6.441A6.448 6.448 0 0052.98 0zM58.96 51.892l-4.875-4.875a1.564 1.564 0 10-2.212 2.212l2.206 2.205H11.297a3.315 3.315 0 01-3.312-3.311V5.34l2.206 2.207a1.564 1.564 0 002.212-2.212L7.528.46a1.603 1.603 0 00-2.214 0L.438 5.334A1.564 1.564 0 002.65 7.547L4.856 5.34v42.783a6.448 6.448 0 006.441 6.44h42.782l-2.206 2.207a1.575 1.575 0 001.106 2.67 1.556 1.556 0 001.106-.459l4.876-4.875a1.574 1.574 0 000-2.214z" fill="#114A5B"/><path d="M36.744 40.316a1.566 1.566 0 001.564-1.564V23.667a5.995 5.995 0 00-10.407-4.011 5.938 5.938 0 00-7.28-1.226 1.565 1.565 0 00-3.126.075v20.247a1.564 1.564 0 003.128 0V23.667a2.857 2.857 0 015.714 0v15.085a1.564 1.564 0 003.129 0V23.667a2.857 2.857 0 015.714 0v15.085a1.566 1.566 0 001.564 1.564zM45.356 11.048a4.103 4.103 0 00-4.098 4.098 1.564 1.564 0 003.129 0 .97.97 0 111.938 0c0 1.345-2.412 4.767-4.647 7.166a1.575 1.575 0 001.145 2.63h5.066a1.564 1.564 0 000-3.128h-1.703c1.619-2.1 3.267-4.718 3.267-6.668a4.102 4.102 0 00-4.097-4.098z" fill="#114A5B"/></svg><svg fill="none" viewBox="0 0 68 68" id="advantages_2" xmlns="http://www.w3.org/2000/svg"><path d="M65.694 17.25H50.861l.424-1.5a4.117 4.117 0 00-2.822-5.084L11.757.158A4.116 4.116 0 006.672 2.98l-2.468 8.625-.669 2.34-3.379 11.8a4.122 4.122 0 002.821 5.085l10.412 2.98v11.14a2.245 2.245 0 002.242 2.242h11.57c-.2 2.09-.985 4.081-2.265 5.745-4.834 5.677-2.69 13.62-2.589 13.956a1.027 1.027 0 00.99.75 1.028 1.028 0 00.99-1.31c-.018-.073-1.954-7.22 2.179-12.07 3.843-4.518 3.071-12.226 2.56-17.329-.082-.824-.158-1.582-.207-2.25a3.17 3.17 0 01.88-2.407 3.867 3.867 0 014.385-.897c.49.215.931.527 1.297.917a3.101 3.101 0 01.85 2.371c-1.481 17.99 3.654 21.035 4.246 21.323a1.029 1.029 0 00.901-1.848c-.03-.014-1.981-1.308-2.89-6.964h13.176c.633 6.106-2.461 13.087-6.008 18.835a1.027 1.027 0 101.75 1.08c4.711-7.635 6.793-14.37 6.292-19.915H65.7a2.245 2.245 0 002.236-2.23V19.492a2.243 2.243 0 00-2.242-2.24zm.187 2.241v4.895a6.257 6.257 0 01-4.994-5.082H65.7a.188.188 0 01.18.187zM8.649 3.544a2.064 2.064 0 012.548-1.416l36.705 10.513a2.06 2.06 0 011.416 2.547l-.68 2.377L7.97 5.919l.68-2.375zM6.462 11.18l.941-3.288L48.068 19.53l-1.61 5.627L5.8 13.521l.662-2.341zm8.982 33.763v-4.916a6.227 6.227 0 015.107 5.107h-4.92a.186.186 0 01-.187-.185v-.006zm11.95.185h-4.751a8.3 8.3 0 00-7.192-7.19v-3.545l11.63 3.33c.285 2.46.39 4.936.314 7.411v-.006zm5.168-16.114a5.93 5.93 0 00-4.332 1.883 5.2 5.2 0 00-1.424 3.949c.015.215.038.454.058.686l-23.32-6.68a2.062 2.062 0 01-1.416-2.549l3.105-10.802L45.9 27.14l-3.102 10.81a2.06 2.06 0 01-2.547 1.416l-2.162-.617a75.51 75.51 0 01.221-3.893 5.146 5.146 0 00-1.39-3.934 5.945 5.945 0 00-4.358-1.907zm5.699 16.126a46.831 46.831 0 01-.199-4.264l1.628.466a4.114 4.114 0 005.084-2.82l3.377-11.801.502-1.754 1.619-5.661h8.53a8.337 8.337 0 007.077 7.172v11.489a8.333 8.333 0 00-7.077 7.169l-20.541.004zm27.433 0h-4.812a6.257 6.257 0 014.999-5.086v4.895a.186.186 0 01-.187.185v.006z" fill="#114A5B"/><path d="M20.945 26.13L8.002 22.428a1.03 1.03 0 10-.566 1.981l12.942 3.701a1.03 1.03 0 10.567-1.981v.003zM55.339 28.108a4.111 4.111 0 10.002 8.223 4.111 4.111 0 00-.002-8.223zm0 6.167a2.055 2.055 0 11.003-4.11 2.055 2.055 0 01-.003 4.11z" fill="#114A5B"/></svg><svg fill="none" viewBox="0 0 54 68" id="advantages_3" xmlns="http://www.w3.org/2000/svg"><path d="M47.987 41.941l3.388-2.46a5.747 5.747 0 002.09-6.436l-1.294-3.98a3.553 3.553 0 010-2.203l1.295-3.983a5.74 5.74 0 00-2.091-6.433l-3.388-2.461a3.555 3.555 0 01-1.295-1.782L45.4 8.22a5.745 5.745 0 00-5.475-3.975H35.74a3.542 3.542 0 01-2.095-.68l-3.386-2.462a5.744 5.744 0 00-6.766 0l-3.387 2.462a3.541 3.541 0 01-2.095.68h-4.187A5.74 5.74 0 008.35 8.22l-1.294 3.983a3.545 3.545 0 01-1.295 1.782l-3.386 2.46a5.74 5.74 0 00-2.091 6.434l1.294 3.982a3.54 3.54 0 010 2.203L.284 33.046a5.743 5.743 0 002.09 6.434l3.389 2.461a3.543 3.543 0 011.293 1.78l.576 1.772-6.447 10.62a3.316 3.316 0 00-.064 3.377 3.347 3.347 0 002.92 1.709l5.552.01 2.58 4.926a3.3 3.3 0 002.855 1.805h.117c1.178 0 2.229-.595 2.845-1.614l6.616-10.888a5.73 5.73 0 002.269.487c.777 0 1.549-.174 2.276-.49l6.609 10.891a3.299 3.299 0 002.856 1.614h.106a3.31 3.31 0 002.855-1.794l2.58-4.937 5.563-.01a3.343 3.343 0 002.908-1.71 3.317 3.317 0 00-.063-3.375l-6.447-10.62.574-1.77a3.535 3.535 0 011.295-1.783zm-31.866 23.25c-.318.52-.828.551-1.019.562a1.144 1.144 0 01-.987-.627l-2.877-5.52a1.097 1.097 0 00-.977-.584l-6.22-.02c-.605 0-.903-.415-1.009-.585a1.17 1.17 0 01.021-1.167l5.5-9.057a5.727 5.727 0 005.27 3.488h4.188c.756 0 1.48.236 2.094.68l2.643 1.921-6.627 10.908zm8.66-12.14l-3.39-2.461a5.72 5.72 0 00-3.38-1.1h-4.188a3.554 3.554 0 01-3.389-2.462l-1.293-3.982a5.702 5.702 0 00-2.091-2.877l-3.387-2.46a3.558 3.558 0 01-1.295-3.987l1.294-3.982a5.72 5.72 0 000-3.555l-1.294-3.982a3.556 3.556 0 011.295-3.985l3.387-2.461a5.718 5.718 0 002.09-2.877l1.294-3.983a3.554 3.554 0 013.39-2.461h4.187a5.71 5.71 0 003.382-1.1l3.388-2.46a3.557 3.557 0 014.19 0l3.385 2.46c.988.72 2.16 1.1 3.383 1.1h4.186c1.55 0 2.91.99 3.39 2.46l1.293 3.986a5.737 5.737 0 002.09 2.875l3.389 2.462a3.555 3.555 0 011.294 3.983l-1.294 3.983a5.724 5.724 0 000 3.557l1.294 3.98a3.561 3.561 0 01-1.294 3.986l-3.388 2.461a5.722 5.722 0 00-2.091 2.877l-1.293 3.983a3.555 3.555 0 01-3.39 2.46H35.74a5.729 5.729 0 00-3.383 1.1l-3.386 2.462a3.564 3.564 0 01-4.19 0zm25.936 5.366c-.106.17-.392.584-1.008.584l-6.22.022a1.07 1.07 0 00-.967.583l-2.887 5.52a1.13 1.13 0 01-.977.627c-.212-.01-.711-.043-1.03-.563l-6.62-10.912 2.636-1.916a3.547 3.547 0 012.095-.68h4.186a5.728 5.728 0 005.272-3.489l5.5 9.057c.307.52.116.987.02 1.167zm-23.842-9.105c-11.772 0-21.349-9.577-21.349-21.35 0-11.772 9.577-21.349 21.349-21.349 11.773 0 21.35 9.577 21.35 21.35 0 11.772-9.577 21.349-21.35 21.349zm0-40.507c-10.564 0-19.157 8.593-19.157 19.157s8.593 19.159 19.157 19.159c10.563 0 19.158-8.595 19.158-19.159 0-10.564-8.595-19.157-19.158-19.157zM20.66 40.582c-.704 0-1.404-.22-2.003-.657a3.392 3.392 0 01-1.356-3.37l.924-5.133-3.765-3.61a3.392 3.392 0 01-.885-3.524 3.394 3.394 0 012.787-2.329l5.167-.707 2.27-4.697a3.394 3.394 0 013.077-1.93h.001c1.323 0 2.5.74 3.075 1.93v.001l2.271 4.696 5.168.707a3.393 3.393 0 012.785 2.329 3.397 3.397 0 01-.882 3.523l-3.767 3.61.925 5.134a3.394 3.394 0 01-1.357 3.37 3.384 3.384 0 01-3.623.247l-4.596-2.464-4.597 2.464a3.402 3.402 0 01-1.619.41zm6.216-23.766a1.2 1.2 0 00-1.103.694l-2.527 5.225c-.16.33-.474.558-.838.609l-5.749.787a1.2 1.2 0 00-1 .835c-.148.458-.03.93.318 1.264l4.189 4.017c.264.253.385.623.32.984l-1.028 5.713c-.085.473.097.925.486 1.21.39.282.875.316 1.3.087l5.114-2.741a1.085 1.085 0 011.036 0l5.114 2.741c.42.227.911.197 1.299-.088.391-.284.573-.736.488-1.211l-1.028-5.71c-.064-.361.056-.732.322-.985l4.188-4.017a1.2 1.2 0 00.314-1.264 1.198 1.198 0 00-.997-.835l-5.75-.787a1.1 1.1 0 01-.837-.61l-2.528-5.224v-.001a1.203 1.203 0 00-1.102-.693h-.001z" fill="#114A5B"/></svg><svg fill="none" viewBox="0 0 61 68" id="advantages_4" xmlns="http://www.w3.org/2000/svg"><path d="M56.544 8.562h-1.63V3.596A3.6 3.6 0 0051.32 0H7.569a3.6 3.6 0 00-3.597 3.596v.47H.997A.997.997 0 000 5.065v8.99c0 .552.446.998.997.998h2.975v.47A3.6 3.6 0 007.57 19.12h6.534v4.964a3.945 3.945 0 003.94 3.94 3.945 3.945 0 003.94-3.94v-4.964h15.47a.997.997 0 100-1.995h-15.47V8.877c0-1.073.874-1.946 1.947-1.946s1.946.873 1.946 1.946v2.235a3.945 3.945 0 003.94 3.94 3.945 3.945 0 003.94-3.94V1.994H51.32c.883 0 1.601.719 1.601 1.602v11.927c0 .883-.718 1.602-1.601 1.602H41.44a.997.997 0 100 1.994h9.878a3.6 3.6 0 003.596-3.596v-4.966h1.629c.883 0 1.602.718 1.602 1.601v7.668c0 .78-.558 1.444-1.326 1.578l-24.228 4.24a3.59 3.59 0 00-2.976 3.543v3.474h-2.828a.997.997 0 00-.998.997v3.745h-.216a.997.997 0 00-.997.998v23.502a6.043 6.043 0 006.036 6.037 6.043 6.043 0 006.036-6.037V54.07a.997.997 0 10-1.994 0v7.834a4.046 4.046 0 01-4.042 4.042 4.047 4.047 0 01-4.042-4.042V39.398h8.084V50.08a.997.997 0 101.994 0V38.4a.997.997 0 00-.997-.997h-.217v-3.745a.997.997 0 00-.997-.998H31.61v-3.473c0-.78.557-1.444 1.326-1.578l24.228-4.24a3.59 3.59 0 002.976-3.543v-7.668a3.6 3.6 0 00-3.596-3.596zm-54.55 4.496V6.06h1.978v6.997H1.994zm29.768-1.946a1.948 1.948 0 01-1.946 1.946 1.948 1.948 0 01-1.946-1.946V8.877a3.945 3.945 0 00-3.94-3.94 3.945 3.945 0 00-3.94 3.94v15.206a1.948 1.948 0 01-1.947 1.946 1.948 1.948 0 01-1.945-1.946v-12.53a.997.997 0 10-1.995 0v5.571H7.57a1.604 1.604 0 01-1.602-1.601V3.596c0-.883.718-1.602 1.602-1.602h6.534v5.571a.997.997 0 101.995 0v-5.57h15.664v9.117zm1.68 26.291h-5.657v-2.748h5.656v2.748z" fill="#114A5B"/></svg><svg fill="none" viewBox="0 0 65 68" id="advantages_5" xmlns="http://www.w3.org/2000/svg"><path fill-rule="evenodd" clip-rule="evenodd" d="M32.443 20.881a23.45 23.45 0 0116.636 6.892A23.456 23.456 0 0155.97 44.41a23.447 23.447 0 01-6.891 16.636 23.456 23.456 0 01-16.636 6.89 23.46 23.46 0 01-16.637-6.89 23.454 23.454 0 01-6.89-16.636 23.46 23.46 0 016.89-16.637 23.455 23.455 0 0116.637-6.892zM10.03 8.001a.948.948 0 00-1.809-.007L6.514 13.29l-5.494-.011a.95.95 0 00-.627 1.716l4.507 3.26-1.73 5.29h.003a.946.946 0 001.457 1.059l4.496-3.28 4.438 3.237a.948.948 0 001.518-1.016l-1.73-5.29 4.507-3.26-.001-.002a.947.947 0 00-.556-1.715l-5.564.012L10.03 8zm.113 6.525l-1.02-3.155-1.018 3.155a.947.947 0 01-.903.658l-3.318-.007 2.688 1.945a.95.95 0 01.345 1.062L5.887 21.34l2.666-1.944a.947.947 0 011.13-.01l2.681 1.954-1.02-3.12a.95.95 0 01.334-1.097l2.688-1.945-3.274.007a.95.95 0 01-.948-.658zm46.52-6.525a.948.948 0 00-1.809-.007L53.15 13.29l-5.495-.011a.95.95 0 00-.626 1.716l4.507 3.26-1.73 5.29h.003a.946.946 0 001.457 1.059l4.496-3.28 4.438 3.237a.948.948 0 001.518-1.016l-1.73-5.29 4.507-3.26-.002-.002a.947.947 0 00-.556-1.715l-5.564.012L56.665 8zm.115 6.525l-1.02-3.155-1.018 3.155a.947.947 0 01-.902.658l-3.319-.007 2.688 1.945a.95.95 0 01.345 1.062l-1.031 3.155 2.666-1.944a.948.948 0 011.13-.01L59 21.338l-1.02-3.12a.95.95 0 01.334-1.097l2.688-1.945-3.274.007a.947.947 0 01-.948-.658zM33.348.666l1.706 5.286 5.565-.01a.947.947 0 01.556 1.714v.002l-4.506 3.26 1.73 5.29a.948.948 0 01-1.518 1.016l-4.438-3.237-4.496 3.28a.946.946 0 01-1.457-1.058l-.003-.002 1.73-5.288-4.507-3.261a.95.95 0 01.626-1.716l5.495.01L31.541.66a.948.948 0 011.807.006zm.114 6.524l-1.02-3.155-1.018 3.155a.947.947 0 01-.902.658l-3.317-.007 2.688 1.945a.95.95 0 01.345 1.062l-1.032 3.155 2.666-1.944a.948.948 0 011.13-.011l2.682 1.955-1.02-3.12a.95.95 0 01.334-1.097l2.687-1.945-3.273.007a.95.95 0 01-.95-.658zm-6.226 33.338l.02 12.318h12.37a1.7 1.7 0 001.083-.377c.292-.239.504-.578.586-.98l1.839-8.954a1.685 1.685 0 00-.007-.751 1.704 1.704 0 00-.344-.67 1.677 1.677 0 00-.583-.467 1.692 1.692 0 00-.736-.155h-6.498a.95.95 0 01-.87-1.336l.207-.587c1.03-2.932 1.576-4.488.144-5.819a1.118 1.118 0 00-.465-.269 1.13 1.13 0 00-.54-.005c-.195.042-.36.12-.49.227-.13.109-.236.255-.31.438l-2.554 6.111c-.514 1.229-1.749 1.316-2.852 1.276zm-1.875 13.138l-.022-14.037c-.186-1-1.87-1.231-1.87.531v13.111c0 1.591 1.467 1.845 1.892.395zm14.266 1.082c.859 0 1.652-.298 2.279-.807a3.602 3.602 0 001.248-2.072l1.839-8.953a3.576 3.576 0 00-.022-1.585 3.592 3.592 0 00-.715-1.413 3.585 3.585 0 00-1.244-.988 3.572 3.572 0 00-1.547-.34h-5.159c1.154-3.314 1.646-5.176-.565-7.23a2.996 2.996 0 00-2.7-.743c-.49.106-.928.32-1.3.63-.369.306-.66.7-.854 1.165l-2.553 6.112c-.063.15-.746.125-1.333.095-1.19-2.669-5.437-2.096-5.437 1.542v13.111c0 3.518 4.04 4.438 5.411 1.476h12.652zm-7.184-29.896c-5.4 0-10.29 2.189-13.828 5.729a19.495 19.495 0 00-5.73 13.828c0 5.4 2.19 10.29 5.73 13.828a19.495 19.495 0 0013.828 5.73c5.4 0 10.29-2.19 13.828-5.73A19.495 19.495 0 0052 44.41c0-5.4-2.189-10.29-5.729-13.828a19.493 19.493 0 00-13.828-5.73zm12.483 7.074a17.6 17.6 0 00-12.483-5.172 17.6 17.6 0 00-12.485 5.172 17.6 17.6 0 00-5.171 12.483c0 4.875 1.975 9.289 5.171 12.485a17.602 17.602 0 0012.485 5.171c4.875 0 9.289-1.976 12.483-5.171a17.602 17.602 0 005.172-12.485c0-4.875-1.976-9.289-5.172-12.483zm2.809-2.809a21.558 21.558 0 00-15.292-6.333 21.558 21.558 0 00-15.292 6.333 21.558 21.558 0 00-6.333 15.292c0 5.972 2.42 11.379 6.333 15.292a21.558 21.558 0 0015.292 6.333c5.972 0 11.379-2.42 15.292-6.333a21.558 21.558 0 006.333-15.292c0-5.972-2.42-11.379-6.333-15.292z" fill="#114A5B"/></svg><svg fill="none" viewBox="0 0 69 69" id="advantages_6" xmlns="http://www.w3.org/2000/svg"><mask id="fa" style="mask-type:luminance" maskUnits="userSpaceOnUse" x="0" y="0" width="69" height="69"><path d="M67.586 67.586V1H1v66.586h66.586z" fill="#fff" stroke="#fff" stroke-width="2"/></mask><g mask="url(#fa)" stroke="#114A5B" stroke-width="2" stroke-miterlimit="10" stroke-linecap="round" stroke-linejoin="round"><path d="M17.082 10.992a20.5 20.5 0 00-2.99 5.946c3.187.447 6.2 1.778 8.62 3.9 7.163 6.278 17.98 6.896 25.885.935a20.508 20.508 0 004.656-4.9 20.616 20.616 0 00-3.124-6.069C44.6 3.378 34.939.78 26.614 3.823"/><path d="M58.177 22.001c-5.216-6.987-13.55-11.51-22.94-11.51-2.904 0-5.709.432-8.35 1.237M39.744 16.379l5.145-4.22M35.897 10.498l-3.408-3.004M13.863 63.867a20.36 20.36 0 0012.477 1.138c-1.207-2.983-1.56-6.257-.933-9.414 1.856-9.343-3.017-19.02-12.133-22.885a20.508 20.508 0 00-6.57-1.583 20.614 20.614 0 00-3.695 5.74c-4.483 10.393.37 22.528 10.854 27.004z"/><path d="M8.682 24.295c-3.442 8.01-3.194 17.49 1.501 25.621a28.602 28.602 0 005.248 6.614M13.03 43.07l-6.227-2.347M9.86 49.342l-.897 4.453M67.096 41.74a20.36 20.36 0 00-5.253-11.376c-1.98 2.538-4.639 4.48-7.686 5.516-9.02 3.064-14.963 12.123-13.753 21.95a20.502 20.502 0 001.915 6.481c2.181.478 4.477.603 6.818.33C60.38 63.327 68.462 53.056 67.096 41.74z"/><path d="M35.416 66.012c8.66-1.024 16.744-5.979 21.438-14.11a28.602 28.602 0 003.104-7.852M49.502 52.86l1.081 6.565M56.518 52.468l4.306-1.45"/></g></svg><svg fill="none" viewBox="0 0 32 32" id="phone" xmlns="http://www.w3.org/2000/svg"><g clip-path="url(#gclip0_22_37)"><path d="M26.68 20.507c-1.64 0-3.227-.267-4.707-.747a1.303 1.303 0 00-1.346.32l-2.094 2.627c-3.773-1.8-7.306-5.2-9.186-9.107l2.6-2.213c.36-.374.466-.894.32-1.36a14.869 14.869 0 01-.747-4.707c0-.72-.6-1.32-1.32-1.32H5.587C4.867 4 4 4.32 4 5.32 4 17.707 14.307 28 26.68 28c.947 0 1.32-.84 1.32-1.573v-4.6c0-.72-.6-1.32-1.32-1.32z" fill="#fff"/></g><defs><clipPath id="gclip0_22_37"><path fill="#fff" d="M0 0h32v32H0z"/></clipPath></defs></svg><svg fill="none" viewBox="0 0 14 14" id="phone_transparent" xmlns="http://www.w3.org/2000/svg"><g clip-path="url(#hclip0_40_462)"><path d="M12.877 9.737l-1.955-1.948a1.137 1.137 0 00-1.608-.002l-.002.002-1.12 1.12a.247.247 0 01-.317.028 12.663 12.663 0 01-1.715-1.44c-.473-.472-.908-.98-1.301-1.52a.243.243 0 01.024-.317l1.148-1.148a1.138 1.138 0 000-1.607L4.076.949c-.45-.43-1.16-.43-1.61 0l-.62.62a3.479 3.479 0 00-.863 3.548c.304.915.732 1.784 1.274 2.581a13.196 13.196 0 001.67 2.032 13.113 13.113 0 002.236 1.805 9.96 9.96 0 002.895 1.287c.264.066.535.098.807.098a3.52 3.52 0 002.48-1.044l.532-.532a1.138 1.138 0 000-1.607zm-.492 1.133l-.002.001.004-.01-.533.532a2.783 2.783 0 01-2.626.751 9.248 9.248 0 01-2.686-1.204 12.404 12.404 0 01-2.118-1.708c-.59-.585-1.12-1.229-1.583-1.92a9.74 9.74 0 01-1.19-2.407 2.783 2.783 0 01.696-2.842l.62-.62a.442.442 0 01.624 0h.001L5.547 3.4a.442.442 0 01.002.624l-.002.002L4.4 5.173a.936.936 0 00-.097 1.217c.415.57.875 1.106 1.374 1.604.557.56 1.162 1.068 1.81 1.52.373.26.88.217 1.203-.104l1.11-1.127a.442.442 0 01.624-.002l.002.002 1.958 1.962a.442.442 0 01.002.625z" fill="#fff" stroke="#fff" stroke-width=".131"/></g><defs><clipPath id="hclip0_40_462"><path fill="#fff" transform="translate(.125)" d="M0 0h13.781v13.781H0z"/></clipPath></defs></svg><svg fill="none" viewBox="0 0 14 16" id="place" xmlns="http://www.w3.org/2000/svg"><g clip-path="url(#iclip0_40_455)" fill="#fff"><path d="M12.281 2.624C11.146.957 9.346 0 7.344 0 5.342 0 3.542.957 2.407 2.624a6.17 6.17 0 00-.7 5.616c.185.507.48 1 .872 1.46l4.37 5.208a.517.517 0 00.791 0l4.368-5.206c.394-.464.688-.956.871-1.458a6.172 6.172 0 00-.698-5.62zm-.276 5.25a3.775 3.775 0 01-.688 1.143l-3.973 4.735L3.37 9.014A3.778 3.778 0 012.68 7.87a5.104 5.104 0 01.581-4.645c.939-1.379 2.427-2.17 4.082-2.17 1.655 0 3.143.791 4.082 2.17a5.105 5.105 0 01.58 4.649z"/><path d="M7.344 3.131c-1.606 0-2.913 1.326-2.913 2.956s1.307 2.955 2.913 2.955c1.606 0 2.913-1.326 2.913-2.955 0-1.63-1.307-2.956-2.913-2.956zm0 4.856c-1.032 0-1.872-.853-1.872-1.9 0-1.048.84-1.9 1.872-1.9s1.872.852 1.872 1.9c0 1.047-.84 1.9-1.872 1.9z"/></g><defs><clipPath id="iclip0_40_455"><path fill="#fff" transform="translate(.781)" d="M0 0h13.125v15.094H0z"/></clipPath></defs></svg><svg fill="none" viewBox="0 0 17 17" id="soc_inst" xmlns="http://www.w3.org/2000/svg"><g clip-path="url(#jclip0_40_439)" fill="#fff"><path d="M9.188 8.203a.984.984 0 11-1.97 0 .984.984 0 011.97 0z"/><path d="M11.635 5.607a1.364 1.364 0 00-.33-.507 1.363 1.363 0 00-.505-.329c-.155-.06-.389-.132-.818-.152-.464-.02-.603-.025-1.779-.025-1.175 0-1.315.004-1.779.025-.43.02-.662.092-.817.152-.192.07-.365.183-.507.33a1.365 1.365 0 00-.329.506c-.06.155-.132.388-.152.817-.02.464-.025.604-.025 1.78 0 1.175.004 1.314.025 1.778.02.43.092.663.152.818.07.191.183.364.33.506.141.146.314.259.506.33.155.06.388.131.817.15.464.022.603.027 1.78.027 1.175 0 1.314-.005 1.778-.026.43-.02.663-.091.818-.152.384-.148.687-.451.835-.835.06-.155.132-.389.152-.818.021-.464.025-.603.025-1.779 0-1.175-.004-1.315-.025-1.779-.02-.43-.091-.662-.152-.817zm-3.432 4.857a2.26 2.26 0 110-4.522 2.26 2.26 0 010 4.522zm2.35-4.083a.528.528 0 110-1.056.528.528 0 010 1.056z"/><path d="M8.203 0a8.204 8.204 0 000 16.406A8.204 8.204 0 008.203 0zm4.682 10.145c-.023.502-.102.844-.219 1.144a2.409 2.409 0 01-1.377 1.377c-.3.117-.642.196-1.144.22-.502.022-.663.028-1.942.028-1.28 0-1.44-.006-1.942-.029-.501-.023-.844-.102-1.143-.219a2.308 2.308 0 01-.835-.543 2.308 2.308 0 01-.543-.834c-.116-.3-.196-.642-.219-1.144-.023-.502-.028-.663-.028-1.942 0-1.28.005-1.44.028-1.942.023-.501.103-.844.219-1.143.118-.315.304-.6.543-.835.236-.24.52-.425.835-.543.3-.116.642-.196 1.143-.219.502-.023.663-.028 1.942-.028 1.28 0 1.44.005 1.942.028s.844.103 1.144.219c.314.118.599.304.834.543.24.236.425.52.543.835.117.3.196.642.22 1.143.022.502.028.663.028 1.942 0 1.28-.006 1.44-.029 1.942z"/></g><defs><clipPath id="jclip0_40_439"><path fill="#fff" d="M0 0h16.406v16.406H0z"/></clipPath></defs></svg><svg fill="none" viewBox="0 0 17 17" id="soc_vk" xmlns="http://www.w3.org/2000/svg"><path d="M8.61 0a8.203 8.203 0 100 16.406A8.203 8.203 0 008.61 0zm4.16 9.09c.383.374.787.725 1.13 1.137.153.182.296.371.405.583.156.302.015.634-.255.652h-1.681c-.434.035-.78-.14-1.07-.437-.233-.236-.449-.489-.673-.733a1.57 1.57 0 00-.302-.27c-.23-.148-.428-.103-.56.137-.133.243-.164.513-.177.784-.018.396-.138.5-.535.518-.85.04-1.656-.089-2.405-.517-.661-.378-1.173-.91-1.618-1.515-.869-1.177-1.533-2.468-2.13-3.797-.135-.3-.037-.46.293-.466.549-.01 1.097-.009 1.646 0 .223.003.37.131.457.342.296.73.66 1.423 1.115 2.066.121.172.245.343.421.464.195.133.343.09.435-.128a1.41 1.41 0 00.097-.434 6.477 6.477 0 00-.027-1.52c-.047-.315-.224-.52-.54-.579-.16-.03-.136-.09-.058-.181.135-.159.262-.257.516-.257h1.898c.3.059.367.193.407.494l.002 2.11c-.004.117.059.463.268.54.168.054.279-.08.379-.186.455-.484.78-1.054 1.07-1.644.129-.26.24-.53.347-.8.08-.2.204-.297.429-.294l1.828.002a.95.95 0 01.162.01c.308.052.393.185.298.486-.15.472-.442.865-.727 1.26-.306.422-.631.83-.934 1.254-.278.387-.256.583.09.92z" fill="#fff"/></svg><svg fill="none" viewBox="0 0 18 17" id="soc_youtube" xmlns="http://www.w3.org/2000/svg"><g clip-path="url(#lclip0_40_446)" fill="#fff"><path d="M7.994 9.74l2.668-1.537-2.668-1.537V9.74z"/><path d="M9.016 0a8.204 8.204 0 000 16.406A8.204 8.204 0 009.016 0zm5.125 8.212s0 1.663-.21 2.465c-.119.44-.465.786-.904.904-.802.211-4.011.211-4.011.211s-3.2 0-4.011-.22a1.285 1.285 0 01-.904-.903c-.211-.794-.211-2.466-.211-2.466s0-1.663.211-2.466a1.31 1.31 0 01.904-.912c.802-.21 4.01-.21 4.01-.21s3.21 0 4.012.219c.439.118.785.464.903.903.22.803.211 2.475.211 2.475z"/></g><defs><clipPath id="lclip0_40_446"><path fill="#fff" transform="translate(.813)" d="M0 0h16.406v16.406H0z"/></clipPath></defs></svg><svg fill="none" viewBox="0 0 76 59" id="youtube" xmlns="http://www.w3.org/2000/svg"><path d="M50.102 27.665L32.51 16.67a2.2 2.2 0 00-3.364 1.864v21.99a2.199 2.199 0 003.364 1.865l17.592-10.995a2.199 2.199 0 000-3.73zm-16.558 8.892V22.502l11.244 7.027-11.244 7.028z" fill="#C88F04"/><path d="M64.475.943H11.407C5.344.943.412 5.875.412 11.937v35.184c0 6.063 4.932 10.995 10.995 10.995h53.069c6.062 0 10.994-4.932 10.994-10.995V11.937C75.47 5.875 70.538.943 64.475.943zm6.598 46.178a6.604 6.604 0 01-6.597 6.597h-53.07a6.604 6.604 0 01-6.596-6.597V11.937a6.604 6.604 0 016.597-6.597h53.069a6.604 6.604 0 016.597 6.597v35.184z" fill="#C88F04"/></svg></svg>