<svg width="60" height="60" viewBox="0 0 60 60" fill="none" xmlns="http://www.w3.org/2000/svg">
<path d="M52.9793 0H15.4231C15.0123 0.00606603 14.6203 0.17354 14.3319 0.466234C14.0435 0.758928 13.8818 1.15334 13.8818 1.56424C13.8818 1.97515 14.0435 2.36955 14.3319 2.66223C14.6204 2.95491 15.0123 3.12236 15.4232 3.12841H52.9793C53.8576 3.1294 54.6996 3.47876 55.3205 4.09981C55.9415 4.72087 56.2907 5.5629 56.2916 6.44114V43.9963C56.2931 44.4102 56.4586 44.8066 56.7517 45.0987C57.0449 45.3908 57.4419 45.5548 57.8558 45.5548C58.2696 45.5548 58.6666 45.3908 58.9598 45.0987C59.253 44.8066 59.4184 44.4102 59.42 43.9963V6.44114C59.4182 4.73348 58.7391 3.09626 57.5316 1.88872C56.3242 0.681169 54.687 0.00191927 52.9793 0Z" fill="#114A5B"/>
<path d="M58.9605 51.8917L54.0851 47.0168C53.9398 46.8715 53.7674 46.7563 53.5777 46.6777C53.3879 46.5991 53.1845 46.5587 52.9791 46.5587C52.7737 46.5587 52.5703 46.5991 52.3806 46.6777C52.1908 46.7563 52.0184 46.8715 51.8732 47.0168C51.7279 47.162 51.6127 47.3344 51.5341 47.5242C51.4555 47.7139 51.4151 47.9173 51.4151 48.1227C51.4151 48.3281 51.4555 48.5315 51.5341 48.7212C51.6127 48.911 51.7279 49.0834 51.8731 49.2286L54.0794 51.4344H11.297C10.4189 51.4335 9.57707 51.0843 8.95613 50.4634C8.33519 49.8426 7.98586 49.0008 7.98478 48.1227V5.34027L10.1911 7.54706C10.486 7.83254 10.8813 7.99066 11.2918 7.98731C11.7022 7.98397 12.0949 7.81943 12.3851 7.52918C12.6754 7.23894 12.8399 6.84625 12.8432 6.4358C12.8465 6.02535 12.6884 5.63004 12.4029 5.33513L7.52804 0.460273C7.23002 0.175313 6.83363 0.0161891 6.4213 0.0159914C6.00897 0.0157937 5.61242 0.174537 5.31413 0.459212L0.438198 5.33517C0.153651 5.63029 -0.00367685 6.02531 6.52579e-05 6.43524C0.00380737 6.84517 0.16832 7.23726 0.458207 7.52713C0.748094 7.817 1.14019 7.98149 1.55012 7.98521C1.96005 7.98892 2.35507 7.83157 2.65016 7.54701L4.85637 5.34027V48.1227C4.85835 49.8302 5.53757 51.4672 6.74501 52.6746C7.95245 53.8819 9.5895 54.561 11.297 54.5628H54.0795L51.8731 56.7696C51.6592 56.9902 51.5144 57.2685 51.4567 57.5704C51.3991 57.8722 51.431 58.1843 51.5486 58.4682C51.6662 58.7521 51.8643 58.9954 52.1185 59.168C52.3727 59.3407 52.6719 59.4351 52.9792 59.4398C53.1846 59.4403 53.3882 59.4 53.578 59.3214C53.7678 59.2427 53.9402 59.1272 54.0851 58.9815L58.9605 54.1056C59.252 53.811 59.4156 53.4132 59.4156 52.9986C59.4156 52.5841 59.252 52.1863 58.9605 51.8917Z" fill="#114A5B"/>
<path d="M36.744 40.3161C37.1587 40.3156 37.5563 40.1507 37.8495 39.8574C38.1428 39.5642 38.3077 39.1666 38.3082 38.7519V23.6668C38.2989 22.4639 37.9278 21.2915 37.2433 20.3022C36.5587 19.3129 35.5924 18.5525 34.4698 18.1198C33.3473 17.6872 32.1206 17.6023 30.9491 17.8762C29.7777 18.1501 28.7158 18.7701 27.9015 19.6557C27.0044 18.6598 25.7969 17.9968 24.4751 17.7743C23.1534 17.5519 21.7953 17.7831 20.6217 18.4305C20.5964 18.0267 20.4158 17.6484 20.1176 17.3749C19.8195 17.1015 19.427 16.9541 19.0225 16.9637C18.6181 16.9733 18.2331 17.1392 17.9482 17.4265C17.6634 17.7138 17.5009 18.1003 17.4949 18.5048V38.7519C17.5009 39.1628 17.6684 39.5547 17.9611 39.8431C18.2538 40.1315 18.6482 40.2932 19.0591 40.2932C19.47 40.2932 19.8644 40.1315 20.1571 39.8431C20.4498 39.5547 20.6172 39.1627 20.6233 38.7518V23.6668C20.6316 22.9146 20.9363 22.196 21.4712 21.667C22.0061 21.138 22.728 20.8413 23.4803 20.8413C24.2326 20.8413 24.9546 21.1381 25.4894 21.6671C26.0243 22.1961 26.329 22.9147 26.3373 23.6669V38.7519C26.3436 39.1626 26.5111 39.5544 26.8038 39.8426C27.0965 40.1309 27.4908 40.2924 27.9015 40.2924C28.3123 40.2924 28.7066 40.1308 28.9993 39.8426C29.2919 39.5543 29.4595 39.1625 29.4657 38.7518V23.6668C29.4741 22.9146 29.7787 22.196 30.3136 21.667C30.8485 21.138 31.5705 20.8413 32.3228 20.8413C33.0751 20.8413 33.797 21.1381 34.3319 21.6671C34.8668 22.1961 35.1714 22.9147 35.1797 23.6669V38.7519C35.1802 39.1666 35.3451 39.5642 35.6384 39.8574C35.9316 40.1507 36.3292 40.3156 36.744 40.3161Z" fill="#114A5B"/>
<path d="M45.3557 11.0482C44.2693 11.0495 43.2278 11.4817 42.4596 12.2499C41.6915 13.0181 41.2594 14.0597 41.2583 15.1461C41.2583 15.561 41.4231 15.9588 41.7164 16.2522C42.0098 16.5455 42.4077 16.7103 42.8225 16.7103C43.2374 16.7103 43.6352 16.5455 43.9286 16.2522C44.2219 15.9588 44.3867 15.561 44.3867 15.1461C44.3863 15.0186 44.411 14.8922 44.4595 14.7743C44.5081 14.6564 44.5794 14.5492 44.6694 14.4589C44.7594 14.3686 44.8664 14.2969 44.9841 14.248C45.1019 14.1991 45.2282 14.1739 45.3557 14.1739C45.4832 14.1739 45.6095 14.1991 45.7272 14.248C45.845 14.2969 45.952 14.3686 46.042 14.4589C46.132 14.5492 46.2033 14.6564 46.2518 14.7743C46.3003 14.8922 46.3251 15.0186 46.3247 15.1461C46.3247 16.4914 43.9127 19.9131 41.6784 22.3123C41.4753 22.5368 41.3413 22.8151 41.2923 23.1138C41.2433 23.4125 41.2815 23.7189 41.4022 23.9965C41.523 24.2741 41.7212 24.5109 41.9731 24.6788C42.225 24.8466 42.5199 24.9382 42.8226 24.9427H47.8889C48.3027 24.9412 48.6991 24.7757 48.9912 24.4826C49.2833 24.1894 49.4473 23.7924 49.4473 23.3785C49.4473 22.9647 49.2833 22.5677 48.9912 22.2745C48.6991 21.9813 48.3027 21.8159 47.8889 21.8143H46.1861C47.8048 19.7145 49.453 17.0963 49.453 15.1461C49.4519 14.0597 49.0198 13.0181 48.2517 12.2499C47.4836 11.4817 46.4421 11.0495 45.3557 11.0482Z" fill="#114A5B"/>
</svg>
