<svg width="68" height="68" viewBox="0 0 68 68" fill="none" xmlns="http://www.w3.org/2000/svg">
<path d="M65.694 17.2505H50.8606L51.2852 15.7502C51.5836 14.7018 51.454 13.5778 50.9249 12.6247C50.3959 11.6717 49.5105 10.9673 48.4629 10.6661L11.7571 0.158081C10.7086 -0.141178 9.58428 -0.0122177 8.63082 0.516656C7.67736 1.04553 6.9727 1.9311 6.67151 2.97899L4.20445 11.6045L3.53496 13.9442L0.156381 25.7444C-0.140888 26.7926 -0.0110151 27.9159 0.517602 28.8686C1.04622 29.8214 1.93057 30.526 2.97729 30.8286L13.389 33.8094V44.9487C13.3898 45.5431 13.6262 46.1129 14.0465 46.5332C14.4668 46.9535 15.0367 47.1899 15.631 47.1907H27.2006C27.0013 49.2807 26.2164 51.272 24.9359 52.9358C20.1023 58.613 22.2467 66.5563 22.3472 66.8917C22.4077 67.1078 22.5374 67.2981 22.7163 67.4336C22.8952 67.569 23.1135 67.6422 23.3379 67.6419C23.4336 67.6434 23.5289 67.631 23.621 67.6051C23.7513 67.5683 23.8731 67.506 23.9793 67.422C24.0854 67.3379 24.174 67.2337 24.2397 67.1153C24.3055 66.9969 24.3472 66.8667 24.3625 66.7322C24.3778 66.5976 24.3663 66.4613 24.3287 66.3312C24.3089 66.2591 22.3726 59.1127 26.5056 54.2621C30.3485 49.7441 29.5771 42.0358 29.0661 36.9332C28.984 36.1094 28.9076 35.3508 28.8594 34.6827C28.8305 34.2426 28.8937 33.8012 29.0451 33.3869C29.1964 32.9726 29.4326 32.5944 29.7384 32.2765C30.1008 31.8886 30.5391 31.5795 31.0261 31.3684C31.5131 31.1573 32.0384 31.0487 32.5692 31.0494C33.1044 31.0527 33.6332 31.165 34.1236 31.3794C34.6139 31.5938 35.0554 31.9058 35.4213 32.2963C35.7208 32.6101 35.9511 32.9833 36.0974 33.3917C36.2437 33.8 36.3027 34.2346 36.2705 34.6671C34.79 52.657 39.9251 55.7015 40.5167 55.9903C40.7603 56.0985 41.0364 56.1079 41.2868 56.0166C41.5372 55.9254 41.7425 55.7405 41.8593 55.5009C41.9761 55.2614 41.9955 54.9859 41.9132 54.7323C41.831 54.4788 41.6536 54.2671 41.4184 54.1417C41.3886 54.1276 39.4368 52.8339 38.5281 47.1779H51.7041C52.3368 53.284 49.2427 60.2648 45.6957 66.0128C45.6248 66.1276 45.5772 66.2554 45.5557 66.3886C45.5341 66.5219 45.539 66.6581 45.5701 66.7895C45.6012 66.9208 45.6578 67.0448 45.7368 67.1543C45.8158 67.2637 45.9156 67.3566 46.0305 67.4275C46.1453 67.4984 46.2731 67.546 46.4063 67.5675C46.5396 67.5891 46.6758 67.5842 46.8072 67.5531C46.9385 67.522 47.0625 67.4654 47.1719 67.3864C47.2814 67.3074 47.3743 67.2076 47.4452 67.0927C52.1571 59.458 54.2391 52.7221 53.7381 47.1779H65.6997C66.2909 47.1757 66.8574 46.9404 67.2761 46.523C67.6948 46.1056 67.9319 45.5399 67.936 44.9487V19.4911C67.9353 18.8969 67.6988 18.3272 67.2785 17.9071C66.8581 17.4871 66.2883 17.2509 65.694 17.2505ZM65.8809 19.4911V24.3856C64.6305 24.1471 63.4826 23.5329 62.5904 22.625C61.6981 21.7171 61.104 20.5587 60.8873 19.3043H65.6997C65.7481 19.3061 65.794 19.3266 65.8278 19.3614C65.8615 19.3962 65.8805 19.4427 65.8809 19.4911ZM8.64883 3.54374C8.79964 3.01861 9.15252 2.57472 9.63012 2.30939C10.1077 2.04406 10.671 1.97895 11.1966 2.12833L47.9024 12.6406C48.1626 12.7149 48.4056 12.8398 48.6176 13.0081C48.8295 13.1763 49.0063 13.3847 49.1377 13.6213C49.2691 13.8579 49.3527 14.118 49.3836 14.3869C49.4145 14.6558 49.3921 14.9281 49.3178 15.1883L48.6384 17.5648L7.96943 5.91879L8.64883 3.54374ZM6.46202 11.1799L7.40327 7.89187L48.068 19.5308L46.4572 25.1584L5.79961 13.5209L6.46202 11.1799ZM15.4442 44.943V40.0273C16.7206 40.2423 17.8982 40.8496 18.8134 41.7649C19.7287 42.6801 20.336 43.8577 20.551 45.1341H15.631C15.6066 45.1343 15.5823 45.1296 15.5596 45.1204C15.537 45.1111 15.5164 45.0975 15.499 45.0803C15.4816 45.063 15.4679 45.0425 15.4585 45.02C15.449 44.9974 15.4442 44.9731 15.4442 44.9487V44.943ZM27.3945 45.1284H22.643C22.4114 43.3021 21.5792 41.6045 20.2773 40.3029C18.9754 39.0012 17.2777 38.1694 15.4513 37.9382V34.3926L27.0803 37.723C27.3663 40.1824 27.4713 42.6594 27.3945 45.1341V45.1284ZM32.5622 29.014C31.7495 29.0141 30.9456 29.1813 30.2003 29.5051C29.455 29.829 28.7842 30.3026 28.2296 30.8965C27.7309 31.4197 27.3467 32.0411 27.1016 32.721C26.8564 33.4009 26.7556 34.1245 26.8057 34.8455C26.8213 35.0606 26.8439 35.2998 26.8637 35.532L3.54345 28.8512C3.01812 28.7008 2.57398 28.3479 2.3086 27.8702C2.04321 27.3925 1.97827 26.829 2.12804 26.3035L5.23345 15.5011L45.8995 27.1386L42.7984 37.9495C42.7242 38.2098 42.5994 38.453 42.4312 38.665C42.263 38.8771 42.0546 39.0539 41.8179 39.1854C41.5813 39.3168 41.3211 39.4003 41.0522 39.4311C40.7832 39.4619 40.5109 39.4394 40.2507 39.3649L38.0893 38.7478C38.1261 37.5404 38.1955 36.251 38.3101 34.8554C38.3661 34.1388 38.2714 33.4185 38.032 32.7407C37.7926 32.063 37.4139 31.443 36.9202 30.9206C36.3642 30.3199 35.6901 29.8405 34.9402 29.5124C34.1903 29.1843 33.3807 29.0146 32.5622 29.014ZM38.2606 45.1398C38.1403 43.8914 38.0695 42.4731 38.0624 40.8765L39.6901 41.3422C40.7384 41.6418 41.8628 41.513 42.8161 40.9841C43.7694 40.4551 44.4737 39.5693 44.7743 38.5213L48.1515 26.721L48.6525 24.9674L50.2717 19.3057H58.8024C59.038 21.1096 59.8571 22.7869 61.1349 24.0818C62.4126 25.3766 64.0789 26.218 65.8794 26.4776V37.9665C64.0791 38.2254 62.4129 39.0663 61.1352 40.3607C59.8574 41.6551 59.0381 43.332 58.8024 45.1355L38.2606 45.1398ZM65.694 45.1398H60.8816C61.0978 43.8838 61.6923 42.7238 62.5857 41.8149C63.4791 40.9061 64.6288 40.2918 65.8809 40.0542V44.9487C65.8809 44.9731 65.876 44.9974 65.8666 45.02C65.8572 45.0425 65.8434 45.063 65.8261 45.0803C65.8087 45.0975 65.7881 45.1111 65.7654 45.1204C65.7428 45.1296 65.7185 45.1343 65.694 45.1341V45.1398Z" fill="#114A5B"/>
<path d="M20.9445 26.1308L8.00199 22.4267C7.73922 22.3516 7.45739 22.384 7.21849 22.5167C6.97959 22.6494 6.8032 22.8716 6.72813 23.1344C6.65305 23.3972 6.68543 23.679 6.81815 23.9179C6.95087 24.1568 7.17306 24.3332 7.43583 24.4082L20.3783 28.1095C20.6411 28.1846 20.9229 28.1522 21.1618 28.0195C21.4007 27.8868 21.5771 27.6646 21.6522 27.4018C21.7273 27.1391 21.6949 26.8572 21.5622 26.6183C21.4294 26.3794 21.2073 26.203 20.9445 26.128V26.1308Z" fill="#114A5B"/>
<path d="M55.3389 28.1082C54.5254 28.1084 53.7303 28.35 53.0541 28.8023C52.378 29.2546 51.8512 29.8973 51.5404 30.649C51.2296 31.4008 51.1488 32.2279 51.3082 33.0256C51.4676 33.8233 51.86 34.5558 52.4358 35.1304C53.0116 35.705 53.7449 36.0959 54.543 36.2536C55.341 36.4114 56.1679 36.3289 56.919 36.0165C57.6701 35.7042 58.3117 35.1761 58.7626 34.499C59.2135 33.8219 59.4534 33.0263 59.452 32.2128C59.4487 31.1238 59.014 30.0804 58.2431 29.3111C57.4722 28.5418 56.4279 28.1093 55.3389 28.1082ZM55.3389 34.2751C54.9325 34.2748 54.5354 34.1541 54.1976 33.9281C53.8598 33.7022 53.5966 33.3812 53.4413 33.0057C53.2859 32.6303 53.2453 32.2172 53.3247 31.8186C53.404 31.4201 53.5997 31.054 53.887 30.7667C54.1744 30.4794 54.5405 30.2836 54.939 30.2043C55.3375 30.125 55.7506 30.1655 56.1261 30.3209C56.5016 30.4763 56.8226 30.7395 57.0485 31.0772C57.2744 31.415 57.3952 31.8121 57.3954 32.2185C57.3951 32.7638 57.1783 33.2867 56.7927 33.6723C56.4071 34.0579 55.8842 34.2747 55.3389 34.2751Z" fill="#114A5B"/>
</svg>
