<svg width="69" height="69" viewBox="0 0 69 69" fill="none" xmlns="http://www.w3.org/2000/svg">
<mask id="mask0_43_127" style="mask-type:luminance" maskUnits="userSpaceOnUse" x="0" y="0" width="69" height="69">
<path d="M67.5862 67.5862V0.999939H1V67.5862H67.5862Z" fill="white" stroke="white" stroke-width="2"/>
</mask>
<g mask="url(#mask0_43_127)">
<path d="M17.0824 10.992C15.7518 12.818 14.7518 14.8317 14.0918 16.9382C17.2793 17.3848 20.2911 18.7157 22.7116 20.8373C29.8745 27.1159 40.692 27.7344 48.5966 21.7726C50.4599 20.3673 52.0154 18.7053 53.2527 16.8737C52.5762 14.7456 51.5364 12.6953 50.1288 10.8042C44.6008 3.37758 34.9383 0.778532 26.6141 3.82258" stroke="#114A5B" stroke-width="2" stroke-miterlimit="10" stroke-linecap="round" stroke-linejoin="round"/>
<path d="M58.1766 22.0011C52.9607 15.014 44.6276 10.4901 35.2379 10.4901C32.3325 10.4901 29.5284 10.9232 26.8862 11.7284" stroke="#114A5B" stroke-width="2" stroke-miterlimit="10" stroke-linecap="round" stroke-linejoin="round"/>
<path d="M39.7441 16.3789L44.8893 12.1592" stroke="#114A5B" stroke-width="2" stroke-miterlimit="10" stroke-linecap="round" stroke-linejoin="round"/>
<path d="M35.8965 10.4982L32.4888 7.49383" stroke="#114A5B" stroke-width="2" stroke-miterlimit="10" stroke-linecap="round" stroke-linejoin="round"/>
<path d="M13.8627 63.8666C17.9555 65.6138 22.3049 65.9075 26.3403 65.0053C25.1332 62.0216 24.7799 58.7479 25.4071 55.5908C27.263 46.2482 22.3898 36.5707 13.2745 32.706C11.1257 31.795 8.90872 31.279 6.70391 31.1233C5.19903 32.7733 3.94331 34.6988 3.00936 36.8634C-1.4742 47.2557 3.37989 59.3914 13.8627 63.8666Z" stroke="#114A5B" stroke-width="2" stroke-miterlimit="10" stroke-linecap="round" stroke-linejoin="round"/>
<path d="M8.68249 24.2954C5.23952 32.3059 5.48814 41.7846 10.1831 49.9164C11.6359 52.4325 13.4129 54.6444 15.4314 56.5298" stroke="#114A5B" stroke-width="2" stroke-miterlimit="10" stroke-linecap="round" stroke-linejoin="round"/>
<path d="M13.0296 43.0695L6.80273 40.7233" stroke="#114A5B" stroke-width="2" stroke-miterlimit="10" stroke-linecap="round" stroke-linejoin="round"/>
<path d="M9.86081 49.3419L8.96289 53.7955" stroke="#114A5B" stroke-width="2" stroke-miterlimit="10" stroke-linecap="round" stroke-linejoin="round"/>
<path d="M67.096 41.7397C66.5628 37.3216 64.6424 33.4079 61.8435 30.3644C59.8629 32.9016 57.2044 34.8445 54.1567 35.8798C45.1379 38.9439 39.1936 48.0029 40.4043 57.8293C40.6897 60.1457 41.3512 62.3239 42.3189 64.311C44.5001 64.7892 46.7956 64.9139 49.1372 64.6405C60.3789 63.3272 68.4618 53.0556 67.096 41.7397Z" stroke="#114A5B" stroke-width="2" stroke-miterlimit="10" stroke-linecap="round" stroke-linejoin="round"/>
<path d="M35.4163 66.0116C44.0753 64.988 52.1595 60.0333 56.8544 51.9016C58.3072 49.3855 59.3341 46.7403 59.9578 44.0497" stroke="#114A5B" stroke-width="2" stroke-miterlimit="10" stroke-linecap="round" stroke-linejoin="round"/>
<path d="M49.5015 52.8596L50.5832 59.4253" stroke="#114A5B" stroke-width="2" stroke-miterlimit="10" stroke-linecap="round" stroke-linejoin="round"/>
<path d="M56.5183 52.4678L60.8242 51.0186" stroke="#114A5B" stroke-width="2" stroke-miterlimit="10" stroke-linecap="round" stroke-linejoin="round"/>
</g>
</svg>
