<svg width="54" height="68" viewBox="0 0 54 68" fill="none" xmlns="http://www.w3.org/2000/svg">
<path d="M47.9872 41.9413L51.375 39.4802C53.3974 38.0099 54.2364 35.4247 53.4659 33.0448L52.1711 29.0642C51.9379 28.343 51.9379 27.5811 52.1711 26.862L53.4659 22.8793C54.2385 20.4994 53.3974 17.9142 51.375 16.446L47.9872 13.9849C47.3751 13.5398 46.9279 12.9234 46.6924 12.2032L45.3998 8.21942C44.6251 5.84174 42.425 4.24409 39.9254 4.24409H35.7393C34.9817 4.24409 34.2562 4.00871 33.6441 3.56358L30.2584 1.10245V1.10135C28.2339 -0.366785 25.5148 -0.367815 23.4924 1.10245L20.1046 3.56358C19.4915 4.00871 18.7681 4.24409 18.0105 4.24409H13.8233C11.3226 4.24409 9.12257 5.84174 8.34999 8.22046L7.05628 12.2032C6.82296 12.9223 6.37461 13.5387 5.76147 13.9849L2.37472 16.445C0.351251 17.9152 -0.48878 20.5005 0.2838 22.8792L1.57751 26.861C1.81186 27.5811 1.81186 28.343 1.57751 29.0642L0.28381 33.0459C-0.488769 35.4225 0.351261 38.0078 2.37473 39.4802L5.76259 41.9413C6.37462 42.3865 6.82297 43.0029 7.05629 43.7219L7.63165 45.4933L1.18515 56.1138C0.548233 57.1648 0.526981 58.4174 1.12145 59.4896C1.72655 60.5511 2.80936 61.1881 4.04073 61.1987L9.59265 61.2093L12.1723 66.1349C12.7349 67.2283 13.8071 67.8971 15.0279 67.9396H15.1446C16.3229 67.9396 17.3739 67.3451 17.9896 66.326L24.6062 55.4384C25.3317 55.7516 26.1008 55.9249 26.8749 55.9249C27.6516 55.9249 28.4235 55.7507 29.1514 55.4354L35.76 66.326C36.3757 67.3451 37.4373 67.9396 38.6156 67.9396H38.7217C39.9426 67.8971 41.0147 67.2283 41.5773 66.1456L44.157 61.2093L49.7195 61.1987C50.9403 61.1881 52.0231 60.5511 52.6282 59.4896C53.2226 58.4174 53.2014 57.1648 52.5645 56.1138L46.1179 45.4932L46.6924 43.7241C46.9279 43.0007 47.3751 42.3844 47.9872 41.9413ZM16.1212 65.1901C15.8028 65.7103 15.2933 65.7422 15.1021 65.7528C14.9004 65.7422 14.3909 65.6678 14.1149 65.1264L11.2381 59.6063C11.047 59.2454 10.6755 59.0225 10.2614 59.0225L4.04073 59.0012C3.43563 59.0012 3.13843 58.5873 3.03224 58.4174C2.93672 58.237 2.74565 57.7699 3.05348 57.2497L8.55292 48.1934C9.45457 50.2935 11.5016 51.6811 13.8233 51.6811H18.0105C18.767 51.6811 19.4915 51.9165 20.1046 52.3616L22.7482 54.2821L16.1212 65.1901ZM24.7808 53.0507L21.3919 50.5896C20.4021 49.8705 19.2325 49.4896 18.0105 49.4896H13.8233C12.275 49.4896 10.9128 48.5008 10.4344 47.0284L9.14071 43.0456C8.76298 41.8815 8.03963 40.8862 7.0498 40.1693L3.6631 37.7082C2.41002 36.7965 1.89 35.1946 2.36829 33.7222L3.662 29.7405C4.03973 28.5763 4.03973 27.3468 3.662 26.1847L2.36829 22.203C1.89 20.7295 2.41002 19.1287 3.6631 18.2181L7.0498 15.7569C8.03962 15.0379 8.76297 14.0427 9.14071 12.8796L10.4344 8.89679C10.9128 7.42439 12.275 6.43566 13.8233 6.43566H18.0105C19.2336 6.43566 20.4042 6.05578 21.3929 5.33562L24.7808 2.87553C26.0328 1.96597 27.7159 1.96597 28.9701 2.87553L32.3557 5.33562C33.3445 6.05579 34.5151 6.43566 35.7393 6.43566H39.9254C41.4748 6.43566 42.8359 7.42542 43.3153 8.89679L44.6079 12.8817C44.9889 14.0459 45.7122 15.04 46.6988 15.7569L50.0867 18.2192C51.3387 19.1277 51.8587 20.7296 51.3815 22.202L50.0867 26.1847C49.71 27.3468 49.7079 28.5763 50.0867 29.7416L51.3815 33.7223C51.8587 35.1957 51.3387 36.7965 50.0867 37.7082L46.6988 40.1694C45.7123 40.8841 44.9889 41.8794 44.6079 43.0457L43.3153 47.0285C42.8359 48.5009 41.4748 49.4896 39.9254 49.4896H35.7393C34.5173 49.4896 33.3466 49.8706 32.3557 50.5896L28.9701 53.0508C27.7159 53.9581 26.0328 53.9581 24.7808 53.0507ZM50.7174 58.4174C50.6112 58.5873 50.3246 59.0013 49.7089 59.0013L43.4882 59.0225C43.0742 59.0225 42.7026 59.2455 42.5221 59.6063L39.6347 65.1264C39.3587 65.6679 38.8597 65.7422 38.6581 65.7528C38.4458 65.7422 37.9468 65.7103 37.6284 65.1901L31.0084 54.2775L33.6441 52.3616C34.2583 51.9165 34.9817 51.6811 35.7393 51.6811H39.9254C42.2463 51.6811 44.2934 50.2951 45.1966 48.1934L50.6961 57.2497C51.004 57.7699 50.8129 58.237 50.7174 58.4174ZM26.8749 49.312C15.1031 49.312 5.52607 39.7349 5.52607 27.9621C5.52607 16.1903 15.1031 6.61325 26.8749 6.61325C38.6477 6.61325 48.2248 16.1903 48.2248 27.9621C48.2248 39.7349 38.6477 49.312 26.8749 49.312ZM26.8749 8.80474C16.3112 8.80474 7.71755 17.3984 7.71755 27.9621C7.71755 38.5257 16.3112 47.1205 26.8749 47.1205C37.4385 47.1205 46.0333 38.5257 46.0333 27.9621C46.0333 17.3984 37.4385 8.80474 26.8749 8.80474ZM20.66 40.5824C19.9559 40.5824 19.256 40.3619 18.6568 39.9254C17.5867 39.1485 17.0667 37.858 17.301 36.5547L18.2245 31.4216L14.46 27.8112C13.5055 26.8963 13.1663 25.5459 13.5751 24.2885C13.9838 23.0312 15.0518 22.1388 16.3615 21.959L21.5288 21.2517L23.7995 16.5552C24.3752 15.3653 25.5544 14.6248 26.8759 14.6248H26.877C28.1996 14.6259 29.3767 15.3653 29.9524 16.5552V16.5563L32.223 21.2517L37.3914 21.959C38.6991 22.1388 39.767 23.0301 40.1758 24.2875C40.5845 25.5448 40.2464 26.8952 39.294 27.8112L35.5274 31.4216L36.4519 36.5547C36.6852 37.858 36.1652 39.1485 35.0951 39.9254C34.025 40.7044 32.634 40.7985 31.4719 40.1715L26.876 37.7082L22.279 40.1715C21.7675 40.4476 21.2121 40.5824 20.66 40.5824ZM26.8759 16.8163C26.3944 16.8163 25.9825 17.0753 25.7727 17.5097L23.2463 22.7348C23.0869 23.0644 22.7723 23.2934 22.4084 23.3437L16.659 24.1313C16.1818 24.1965 15.8083 24.5079 15.6596 24.9659C15.5108 25.4239 15.6296 25.8958 15.9774 26.2296L20.1656 30.2467C20.4299 30.5003 20.5508 30.8705 20.4856 31.2311L19.4583 36.9442C19.3727 37.4171 19.5546 37.8687 19.9441 38.1533C20.3347 38.4358 20.8194 38.4701 21.2432 38.2411L26.3581 35.4996C26.6812 35.3241 27.0707 35.3241 27.3939 35.4996L32.5077 38.2411C32.9272 38.4679 33.4194 38.438 33.8068 38.1533C34.1984 37.8687 34.3803 37.4171 34.2947 36.942L33.2675 31.2311C33.2033 30.8705 33.3231 30.5003 33.5885 30.2467L37.7767 26.2296C38.1234 25.8969 38.2411 25.4239 38.0913 24.9659C37.9436 24.5079 37.5691 24.1965 37.094 24.1313L31.3435 23.3437C30.9818 23.2934 30.6672 23.0655 30.5067 22.7348L27.9792 17.5097V17.5086C27.7695 17.0753 27.3575 16.8174 26.8771 16.8163H26.8759Z" fill="#114A5B"/>
</svg>
