<svg width="14" height="14" viewBox="0 0 14 14" fill="none" xmlns="http://www.w3.org/2000/svg">
<g clip-path="url(#clip0_40_462)">
<path d="M12.8773 9.73686L10.9222 7.78874C10.4785 7.34397 9.75828 7.34311 9.31351 7.78682C9.31286 7.78747 9.31225 7.78808 9.31159 7.78874L8.19144 8.90889C8.10669 8.99384 7.97314 9.00558 7.87489 8.93673C7.2618 8.50827 6.68788 8.02628 6.15987 7.49652C5.68698 7.02468 5.25195 6.5164 4.8588 5.97628C4.78754 5.87926 4.79789 5.74473 4.88313 5.65973L6.03113 4.51174C6.47435 4.06766 6.47435 3.34862 6.03113 2.90455L4.07607 0.949491C3.62556 0.518789 2.91593 0.518789 2.46542 0.949491L1.84621 1.5687C0.91106 2.49333 0.577221 3.86628 0.983462 5.11704C1.2866 6.03214 1.7151 6.90079 2.25669 7.69827C2.74426 8.42939 3.30362 9.10995 3.9265 9.72989C4.60368 10.4119 5.35379 11.0173 6.16334 11.5354C7.05328 12.1161 8.03042 12.5506 9.05766 12.8225C9.32175 12.8876 9.59276 12.9203 9.86472 12.9199C10.7971 12.9142 11.6891 12.5389 12.3451 11.8763L12.8773 11.344C13.3205 10.9 13.3205 10.1809 12.8773 9.73686ZM12.3847 10.8696C12.3842 10.87 12.3838 10.8705 12.3833 10.871L12.3868 10.8605L11.8545 11.3928C11.1706 12.0853 10.1747 12.3702 9.22802 12.1442C8.27428 11.8889 7.36763 11.4825 6.54243 10.9405C5.77577 10.4506 5.06528 9.87779 4.42386 9.23245C3.83367 8.64659 3.30346 8.00329 2.841 7.31217C2.33517 6.5685 1.9348 5.75839 1.65126 4.90485C1.32623 3.90215 1.59558 2.80189 2.34703 2.06271L2.96624 1.4435C3.1384 1.27057 3.41814 1.26996 3.59103 1.44212C3.59148 1.44257 3.59197 1.44301 3.59242 1.4435L5.54747 3.39856C5.7204 3.57072 5.72102 3.85046 5.54886 4.02335C5.54841 4.0238 5.54796 4.02425 5.54747 4.02474L4.39948 5.17273C4.07008 5.49854 4.02866 6.01628 4.30209 6.39031C4.7173 6.96015 5.17678 7.49636 5.67621 7.99404C6.23305 8.55328 6.83839 9.06201 7.48516 9.51427C7.85887 9.77494 8.36552 9.73099 8.6888 9.40991L9.79851 8.28279C9.97067 8.10986 10.2504 8.10924 10.4233 8.2814C10.4238 8.28185 10.4242 8.2823 10.4247 8.28279L12.3833 10.2448C12.5562 10.4169 12.5568 10.6966 12.3847 10.8696Z" fill="white" stroke="white" stroke-width="0.13125"/>
</g>
<defs>
<clipPath id="clip0_40_462">
<rect width="13.7812" height="13.7812" fill="white" transform="translate(0.124756)"/>
</clipPath>
</defs>
</svg>
