<svg width="14" height="16" viewBox="0 0 14 16" fill="none" xmlns="http://www.w3.org/2000/svg">
<g clip-path="url(#clip0_40_455)">
<path d="M12.2814 2.62434C11.1458 0.956655 9.34612 0 7.34407 0C5.34201 0 3.54228 0.956655 2.4067 2.62434C1.27669 4.28359 1.01577 6.38424 1.70734 8.24016C1.89232 8.74698 2.18636 9.23938 2.57922 9.7008L6.94811 14.908C7.04691 15.0258 7.19168 15.0938 7.34407 15.0938C7.49645 15.0938 7.64122 15.0259 7.74003 14.908L12.1077 9.70222C12.5023 9.23814 12.796 8.74627 12.9794 8.24352C13.6724 6.38424 13.4114 4.28359 12.2814 2.62434ZM12.0054 7.8739C11.864 8.26179 11.633 8.6453 11.3194 9.01418C11.3185 9.01507 11.3177 9.01595 11.317 9.01701L7.34407 13.752L3.36872 9.01404C3.05527 8.64548 2.82433 8.262 2.68148 7.87039C2.10955 6.33551 2.3266 4.59867 3.26227 3.22458C4.20088 1.8461 5.68873 1.0555 7.34407 1.0555C8.99937 1.0555 10.487 1.84607 11.4257 3.22458C12.3615 4.59867 12.5788 6.33551 12.0054 7.8739Z" fill="white"/>
<path d="M7.34399 3.13135C5.73807 3.13135 4.4314 4.45706 4.4314 6.08678C4.4314 7.71649 5.7379 9.0422 7.34399 9.0422C8.95008 9.0422 10.2566 7.71649 10.2566 6.08678C10.2566 4.45724 8.94991 3.13135 7.34399 3.13135ZM7.34399 7.98667C6.31157 7.98667 5.4716 7.13435 5.4716 6.08675C5.4716 5.03915 6.31157 4.18682 7.34399 4.18682C8.37641 4.18682 9.21638 5.03915 9.21638 6.08675C9.21638 7.13435 8.37641 7.98667 7.34399 7.98667Z" fill="white"/>
</g>
<defs>
<clipPath id="clip0_40_455">
<rect width="13.125" height="15.0938" fill="white" transform="translate(0.78125)"/>
</clipPath>
</defs>
</svg>
