<svg width="17" height="17" viewBox="0 0 17 17" fill="none" xmlns="http://www.w3.org/2000/svg">
<g clip-path="url(#clip0_40_439)">
<path d="M9.1875 8.20312C9.1875 8.74679 8.74679 9.1875 8.20312 9.1875C7.65946 9.1875 7.21875 8.74679 7.21875 8.20312C7.21875 7.65946 7.65946 7.21875 8.20312 7.21875C8.74679 7.21875 9.1875 7.65946 9.1875 8.20312Z" fill="white"/>
<path d="M11.6353 5.60655C11.5647 5.41538 11.4522 5.24235 11.3059 5.10032C11.1639 4.95408 10.991 4.84154 10.7997 4.77099C10.6446 4.71074 10.4115 4.63903 9.98228 4.61949C9.51794 4.59831 9.37872 4.59375 8.20318 4.59375C7.02753 4.59375 6.88831 4.5982 6.42409 4.61937C5.99484 4.63903 5.76168 4.71074 5.60667 4.77099C5.41538 4.84154 5.24235 4.95408 5.10044 5.10032C4.9542 5.24235 4.84166 5.41527 4.77099 5.60655C4.71074 5.76168 4.63903 5.99484 4.61949 6.42409C4.59831 6.88831 4.59375 7.02753 4.59375 8.20318C4.59375 9.37872 4.59831 9.51794 4.61949 9.98228C4.63903 10.4115 4.71074 10.6446 4.77099 10.7997C4.84166 10.991 4.95408 11.1639 5.10032 11.3059C5.24235 11.4522 5.41527 11.5647 5.60655 11.6353C5.76168 11.6956 5.99484 11.7673 6.42409 11.7869C6.88831 11.8081 7.02742 11.8125 8.20307 11.8125C9.37883 11.8125 9.51806 11.8081 9.98216 11.7869C10.4114 11.7673 10.6446 11.6956 10.7997 11.6353C11.1837 11.4871 11.4871 11.1837 11.6353 10.7997C11.6955 10.6446 11.7672 10.4115 11.7869 9.98228C11.8081 9.51794 11.8125 9.37872 11.8125 8.20318C11.8125 7.02753 11.8081 6.88831 11.7869 6.42409C11.7673 5.99484 11.6956 5.76168 11.6353 5.60655ZM8.20318 10.4638C6.95453 10.4638 5.94232 9.45172 5.94232 8.20307C5.94232 6.95441 6.95453 5.94232 8.20318 5.94232C9.45172 5.94232 10.4639 6.95441 10.4639 8.20307C10.4639 9.45172 9.45172 10.4638 8.20318 10.4638ZM10.5533 6.38127C10.2615 6.38127 10.025 6.14471 10.025 5.85293C10.025 5.56116 10.2615 5.3246 10.5533 5.3246C10.8451 5.3246 11.0817 5.56116 11.0817 5.85293C11.0815 6.14471 10.8451 6.38127 10.5533 6.38127Z" fill="white"/>
<path d="M8.20312 0C3.67336 0 0 3.67336 0 8.20312C0 12.7329 3.67336 16.4062 8.20312 16.4062C12.7329 16.4062 16.4062 12.7329 16.4062 8.20312C16.4062 3.67336 12.7329 0 8.20312 0ZM12.8851 10.1451C12.8623 10.6466 12.7826 10.9889 12.6662 11.2886C12.4215 11.9213 11.9213 12.4215 11.2886 12.6662C10.989 12.7826 10.6466 12.8622 10.1453 12.8851C9.64295 12.908 9.48248 12.9135 8.20325 12.9135C6.92389 12.9135 6.76355 12.908 6.26112 12.8851C5.75981 12.8622 5.41735 12.7826 5.11782 12.6662C4.80339 12.5479 4.51875 12.3625 4.28343 12.1228C4.04386 11.8876 3.85848 11.6029 3.7402 11.2886C3.62379 10.989 3.54406 10.6466 3.52128 10.1453C3.49812 9.64283 3.49274 9.48236 3.49274 8.20312C3.49274 6.92389 3.49812 6.76342 3.52115 6.26112C3.54393 5.75969 3.62354 5.41735 3.73995 5.11769C3.85823 4.80339 4.04373 4.51863 4.28343 4.28343C4.51863 4.04373 4.80339 3.85836 5.11769 3.74007C5.41735 3.62366 5.75969 3.54406 6.26112 3.52115C6.76342 3.49824 6.92389 3.49274 8.20312 3.49274C9.48236 3.49274 9.64283 3.49824 10.1451 3.52128C10.6466 3.54406 10.9889 3.62366 11.2886 3.73995C11.6029 3.85823 11.8876 4.04373 12.1229 4.28343C12.3625 4.51875 12.548 4.80339 12.6662 5.11769C12.7827 5.41735 12.8623 5.75969 12.8852 6.26112C12.9081 6.76342 12.9135 6.92389 12.9135 8.20312C12.9135 9.48236 12.9081 9.64283 12.8851 10.1451Z" fill="white"/>
</g>
<defs>
<clipPath id="clip0_40_439">
<rect width="16.4062" height="16.4062" fill="white"/>
</clipPath>
</defs>
</svg>
