<svg width="17" height="17" viewBox="0 0 17 17" fill="none" xmlns="http://www.w3.org/2000/svg">
<path d="M8.60938 0C4.07907 0 0.40625 3.67265 0.40625 8.20312C0.40625 12.7336 4.07907 16.4062 8.60938 16.4062C13.1397 16.4062 16.8125 12.7336 16.8125 8.20312C16.8125 3.67265 13.1397 0 8.60938 0ZM12.7704 9.09032C13.1528 9.46376 13.5573 9.81522 13.9005 10.2273C14.0526 10.4095 14.1959 10.598 14.305 10.81C14.4607 11.1123 14.3201 11.4438 14.0495 11.4617L12.369 11.4614C11.9349 11.4973 11.5895 11.3222 11.2983 11.0255C11.0659 10.789 10.8502 10.5364 10.6263 10.2919C10.5348 10.1915 10.4385 10.097 10.3237 10.0227C10.0946 9.87362 9.89552 9.91928 9.76427 10.1586C9.63051 10.4022 9.59996 10.672 9.5872 10.9431C9.56891 11.3394 9.44941 11.4429 9.0518 11.4615C8.2022 11.5013 7.39607 11.3724 6.64683 10.9441C5.98589 10.5663 5.47431 10.0331 5.02853 9.42936C4.16047 8.25247 3.49566 6.96078 2.89832 5.632C2.76388 5.33274 2.86224 5.17263 3.19238 5.16642C3.74087 5.15584 4.28937 5.15719 4.83787 5.16591C5.06109 5.16944 5.20879 5.29716 5.29456 5.5078C5.59096 6.23706 5.95433 6.93091 6.40968 7.5744C6.53103 7.74576 6.65489 7.91662 6.83129 8.03764C7.02598 8.17124 7.17435 8.12709 7.26616 7.90974C7.3249 7.77161 7.35025 7.62391 7.363 7.47588C7.40664 6.96884 7.41184 6.46196 7.33632 5.95694C7.28932 5.6409 7.11158 5.4368 6.79655 5.37705C6.63609 5.34667 6.65959 5.28726 6.73764 5.19562C6.87308 5.03718 6.99997 4.93916 7.25357 4.93916L9.15233 4.93883C9.45159 4.99757 9.51873 5.13184 9.55934 5.43328L9.56102 7.54335C9.5575 7.66 9.6196 8.00575 9.82906 8.08211C9.9969 8.1375 10.1077 8.00289 10.208 7.89665C10.6634 7.41344 10.9878 6.84313 11.2783 6.25284C11.4066 5.99252 11.5172 5.72314 11.6246 5.45325C11.7045 5.25369 11.8287 5.15551 12.0539 5.15886L13.8824 5.16105C13.9362 5.16105 13.991 5.16155 14.0443 5.17078C14.3525 5.22348 14.4369 5.35607 14.3416 5.65667C14.1915 6.12897 13.9 6.52239 13.615 6.91681C13.3095 7.33909 12.9838 7.7466 12.6813 8.17073C12.4034 8.55844 12.4254 8.75364 12.7704 9.09032Z" fill="white"/>
</svg>
