<svg width="76" height="59" viewBox="0 0 76 59" fill="none" xmlns="http://www.w3.org/2000/svg">
<path d="M50.102 27.6646L32.5101 16.6697C31.8321 16.246 30.9777 16.2236 30.2786 16.6111C29.5793 16.9985 29.1455 17.735 29.1455 18.5344V40.5243C29.1455 41.3237 29.5793 42.0601 30.2786 42.4477C30.6108 42.6318 30.9779 42.7233 31.3445 42.7233C31.7496 42.7233 32.154 42.6115 32.51 42.3891L50.1019 31.3941C50.7449 30.9923 51.1354 30.2876 51.1354 29.5294C51.1354 28.7712 50.745 28.0665 50.102 27.6646ZM33.5436 36.5568V22.5019L44.7875 29.5294L33.5436 36.5568Z" fill="#C88F04"/>
<path d="M64.4755 0.942505H11.4066C5.34395 0.942505 0.411621 5.87484 0.411621 11.9374V47.1213C0.411621 53.1839 5.34395 58.1162 11.4066 58.1162H64.4755C70.5381 58.1162 75.4704 53.1839 75.4704 47.1213V11.9374C75.4704 5.87484 70.5381 0.942505 64.4755 0.942505ZM71.0725 47.1213C71.0725 50.7588 68.1131 53.7182 64.4755 53.7182H11.4066C7.769 53.7182 4.8096 50.7588 4.8096 47.1213V11.9374C4.8096 8.29988 7.769 5.34048 11.4066 5.34048H64.4755C68.1131 5.34048 71.0725 8.29988 71.0725 11.9374V47.1213Z" fill="#C88F04"/>
</svg>
